<svg width="221" height="40" viewBox="0 0 221 40" fill="none" xmlns="http://www.w3.org/2000/svg">
<path d="M18.0891 0.60799L18.3912 4.81052H18.5136C20.2691 1.52408 22.7471 0 25.8946 0C29.8872 0 32.0182 1.64322 33.398 4.81052H33.5164C35.9985 0.973606 38.9011 0 41.4444 0C48.9886 0 50.4583 5.23775 50.4583 10.6522V29.2246H40.779V12.9075C40.779 10.2906 40.8974 7.73133 38.1172 7.73133C35.2106 7.73133 34.7289 10.0442 34.7289 12.7226V29.2246H25.0454V12.9075C25.0454 10.2906 25.1679 7.73133 22.3837 7.73133C19.4812 7.73133 18.9953 10.0442 18.9953 12.7226V29.2246H9.43848V12.053C7.01762 12.1146 4.41714 10.7138 4.53961 7.06172C1.81666 6.88097 0 4.99127 0 1.46246V0.60799H18.0891Z" fill="#F50F64"/>
<path d="M62.8688 29.7094C58.272 29.7094 53.7936 27.6553 53.7936 21.3084C53.7936 9.92503 70.7355 15.4052 70.7355 9.31704C70.7355 7.9162 69.8864 7.06172 67.7105 7.06172C65.5346 7.06172 64.0812 8.33932 63.5954 11.0178L54.9448 9.62103C56.4431 2.87563 61.5869 0 68.0616 0C75.5242 0 80.423 2.43607 80.423 10.5946V18.8107C80.423 19.7268 80.6067 26.9693 80.7864 29.2246H72.1154L71.752 26.0573H71.6296C69.5884 28.6166 66.4857 29.7094 62.8565 29.7094H62.8688ZM63.7056 20.3348C63.7056 22.0396 64.9304 22.9516 66.6082 22.9516C69.3312 22.9516 70.8417 21.1852 70.8417 18.4328V16.1323C68.3024 18.1411 63.7056 16.9868 63.7056 20.3348Z" fill="#F50F64"/>
<path d="M98.0059 32.9383C101.092 32.9383 102.664 31.6607 102.664 28.0086V24.7222H102.545C101.092 26.731 98.2467 28.2551 95.1033 28.2551C87.6611 28.2551 84.1502 22.2861 84.1502 14.1892C84.1502 6.21136 88.1469 0 95.5278 0C98.7938 0 101.455 2.00883 102.848 3.77529H102.966L103.15 0.60799H112.347V24.9605C112.347 35.6783 107.383 40 97.8875 40C92.6824 40 87.6611 38.1719 85.2321 32.0838L93.3968 30.0298C94.2419 32.0386 95.5728 32.9547 97.9936 32.9547L98.0059 32.9383ZM102.954 14.2631C102.954 9.74427 101.504 7.50539 98.5407 7.50539C95.517 7.50539 94.0038 9.75797 94.001 14.2631C94.001 18.9504 95.5156 21.2016 98.5407 21.2016C101.504 21.2016 102.954 18.9504 102.954 14.2631Z" fill="#F50F64"/>
<path d="M135.396 0C142.112 0 143.7 5.11451 143.7 11.0917V29.2246H134.004V12.9691C134.004 10.3482 133.882 7.73133 130.616 7.73133C127.53 7.73133 126.864 10.3482 126.864 13.0307V29.2246H117.185V0.60799H126.378L126.623 4.62565H126.742C129.101 1.46246 131.824 0 135.396 0Z" fill="#F50F64"/>
<path d="M156.69 29.8326C150.093 29.8326 148.525 24.7181 148.525 18.7409V0.60799H158.205V16.8635C158.205 19.4803 158.327 22.1013 161.471 22.1013C164.439 22.1013 165.104 19.4803 165.104 16.8019V0.60799H174.783V29.2246H165.582L165.337 25.2069H165.214C162.916 28.3701 160.193 29.8326 156.686 29.8326" fill="#F50F64"/>
<path d="M188.329 0.60799L188.631 4.81052H188.753C190.505 1.52408 193.097 0 196.253 0C200.306 0 202.425 1.64322 203.817 4.81052H203.936C206.418 0.973606 209.382 0 211.925 0C219.547 0 221 5.23775 221 10.6522V29.2246H211.321V12.9075C211.321 10.2906 211.439 7.73133 208.598 7.73133C205.634 7.73133 205.148 10.0442 205.148 12.7226V29.2246H195.469V12.9075C195.469 10.2906 195.587 7.73133 192.746 7.73133C189.782 7.73133 189.296 10.0442 189.296 12.7226V29.2246H179.625V0.60799H188.329Z" fill="#F50F64"/>
</svg>
